<?xml version="1.0" encoding="UTF-8"?><svg xmlns="http://www.w3.org/2000/svg" viewBox="0 0 165.58 100"><defs><style>.b{fill:#ebebeb;opacity:.75;}.c{fill:#f7f7f7;opacity:.29;}.d,.e{fill:#fff;}.f{fill:#fafafa;opacity:.18;}.g{fill:#efefef;opacity:.61;}.h{fill:#f9f9f9;opacity:.21;}.i{fill:#e7e7e7;opacity:.89;}.j{fill:#e9e9e9;opacity:.82;}.e{opacity:0;}.k{isolation:isolate;}.l{fill:#ededed;opacity:.68;}.m{fill:#ececec;opacity:.71;}.n{fill:#e54554;}.o{fill:#f8f8f8;opacity:.25;}.p{fill:#e8e8e8;opacity:.86;}.q{fill:#753bbd;}.r{fill:#fbfbfb;opacity:.14;}.s{fill:#fcfcfc;opacity:.11;}.t{fill:#fefefe;opacity:.04;}.u{fill:#e6e6e6;opacity:.93;}.v{fill:#f6f6f6;opacity:.32;}.w{fill:#e4e4e4;}.x{fill:#f5f5f5;opacity:.36;}.y{fill:#f4f4f4;opacity:.39;}.a`{fill:#eaeaea;opacity:.79;}.aa{fill:#eee;opacity:.64;}.ab{fill:#373c47;}.ac{fill:#e5e5e5;opacity:.96;}.ad{fill:#f0f0f0;opacity:.57;}.ae{opacity:.46;}.ae,.af{fill:#f2f2f2;}.ag{fill:#f1f1f1;opacity:.54;}.ah{fill:#fdfdfd;opacity:.07;}.ai{mix-blend-mode:multiply;}.aj{fill:#f3f3f3;opacity:.43;}.af{opacity:.5;}</style></defs><g class="k"><g id="a"><g><path class="q" d="M7.46,0H157.54c4.12,0,7.46,3.34,7.46,7.46V92.54c0,4.12-3.34,7.46-7.46,7.46H7.46c-4.12,0-7.46-3.34-7.46-7.46V7.46C0,3.34,3.34,0,7.46,0Z"/><path class="ab" d="M146.35,31.62c-.35-.35-.63-.74-.86-1.16-.07,0-.13,0-.2,0-1.35,0-2.54-.55-3.4-1.42-1.69-.03-3.1-.92-3.95-2.22-.1-.03-.2-.07-.3-.11-1.11-.13-2.17-.49-3.18-.99-.1-.05-.2-.11-.3-.18-.55,.22-1.13,.34-1.72,.34-1.36,0-2.54-.55-3.41-1.42-.8,.52-1.73,.83-2.68,.83-.58,0-1.12-.1-1.63-.28-.81,1.66-2.61,2.83-4.46,2.83-1.49,0-2.77-.66-3.65-1.69-.9,1.41-2.53,2.38-4.21,2.38-.11,0-.21,0-.32-.01-.9,1.41-2.53,2.37-4.2,2.37-.04,0-.08,0-.12,0-.28,1.17-1.06,2.19-2.06,2.86-.14,.25-.31,.48-.49,.7h43.95c-.98-.91-1.97-1.79-2.81-2.84Z"/><g><path class="ab" d="M99.59,75.06c.46,.75,.73,1.63,.78,2.56,.02,.39-.02,.78-.11,1.15,.5,.24,.95,.56,1.33,.94h8.06v-4.64h-10.06Z"/><path class="ab" d="M102.83,81.72c.16,.47,.26,.98,.28,1.5,0,.04,0,.09,0,.13,.82,.64,1.43,1.55,1.74,2.58,.19,.13,.37,.28,.54,.43h4.25v-4.64h-6.81Z"/></g><path class="d" d="M95.97,43.76c.53,.79,.86,1.74,.9,2.76,.1,2.25-1.65,4.21-3.76,4.76,.6,.82,.96,1.83,1.01,2.9,.05,1.02-.29,1.99-.87,2.79,.52,.78,.83,1.72,.87,2.71,.02,.47-.04,.92-.16,1.35,.09,.36,.15,.73,.16,1.1,.01,.24,0,.48-.03,.71,.07,.31,.11,.63,.13,.96,.05,1.14-.37,2.2-1.07,3.04h64.06v-23.09h-61.23Z"/><path class="ab" d="M0,16.57v22.62H98.68c2.47-2.6,5.42-4.82,8.56-6.5,3.69-1.99,7.66-3.32,11.83-3.75,3.79-.39,7.61-.55,11.41-.49,4.07,.07,8.13,.38,11.99,1.76,3.63,1.3,7.03,3.11,10.55,4.65,.82,.23,1.54,.65,2.14,1.26l.77,.99c.41,.63,.6,1.35,.64,2.09h8.43V16.57H0Z"/><g><path class="ab" d="M93.45,74.01c-.16-.24-.3-.53-.41-.85H10.91v3.56H95.58c-.76-.86-1.48-1.75-2.13-2.71Z"/><path class="ab" d="M98.32,79.59c-.44-.44-.87-.87-1.3-1.31H10.91v3.56H100.1c-.65-.7-1.23-1.46-1.79-2.25Z"/><path class="ab" d="M101.75,83.38H10.91v3.56H105.94c-1.41-1.17-2.81-2.35-4.19-3.56Z"/></g><rect class="d" x="10.91" y="46.33" width="82.76" height="17.71"/><g><g class="ai"><circle class="w" cx="127.44" cy="58.84" r="31.37" transform="translate(-4.28 107.35) rotate(-45)"/><circle class="ac" cx="127.54" cy="58.94" r="31.37" transform="translate(-4.32 107.45) rotate(-45)"/><circle class="u" cx="127.63" cy="59.03" r="31.37" transform="translate(-4.36 107.54) rotate(-45)"/><circle class="i" cx="127.73" cy="59.13" r="31.37" transform="translate(-4.4 107.64) rotate(-45)"/><circle class="p" cx="127.83" cy="59.22" r="31.37" transform="translate(-4.44 107.73) rotate(-45)"/><circle class="j" cx="127.92" cy="59.32" r="31.37" transform="translate(-4.48 107.83) rotate(-45)"/><circle class="a`" cx="128.02" cy="59.41" r="31.37" transform="translate(-4.52 107.92) rotate(-45)"/><circle class="b" cx="128.11" cy="59.51" r="31.37" transform="translate(-4.56 108.02) rotate(-45)"/><circle class="m" cx="128.21" cy="59.6" r="31.37" transform="translate(-4.6 108.11) rotate(-45)"/><circle class="l" cx="128.3" cy="59.7" r="31.37" transform="translate(-4.64 108.21) rotate(-45)"/><circle class="aa" cx="128.4" cy="59.8" r="31.37" transform="translate(-4.67 108.3) rotate(-45)"/><circle class="g" cx="128.49" cy="59.89" r="31.37" transform="translate(-4.71 108.4) rotate(-45)"/><circle class="ad" cx="128.59" cy="59.99" r="31.37" transform="translate(-4.75 108.49) rotate(-45)"/><circle class="ag" cx="128.68" cy="60.08" r="31.37" transform="translate(-4.79 108.59) rotate(-45)"/><circle class="af" cx="128.78" cy="60.18" r="31.37" transform="translate(-4.83 108.69) rotate(-45)"/><circle class="ae" cx="128.87" cy="60.27" r="31.37" transform="translate(-4.87 108.78) rotate(-45)"/><circle class="aj" cx="128.97" cy="60.37" r="31.37" transform="translate(-4.91 108.88) rotate(-45)"/><circle class="y" cx="129.06" cy="60.46" r="31.37" transform="translate(-4.95 108.97) rotate(-45)"/><circle class="x" cx="129.16" cy="60.56" r="31.37" transform="translate(-4.99 109.07) rotate(-45)"/><circle class="v" cx="129.26" cy="60.65" r="31.37" transform="translate(-5.03 109.16) rotate(-45)"/><circle class="c" cx="129.35" cy="60.75" r="31.37" transform="translate(-5.07 109.26) rotate(-45)"/><circle class="o" cx="129.45" cy="60.84" r="31.37" transform="translate(-5.11 109.35) rotate(-45)"/><circle class="h" cx="129.54" cy="60.94" r="31.37" transform="translate(-5.15 109.45) rotate(-45)"/><circle class="f" cx="129.64" cy="61.03" r="31.37" transform="translate(-5.19 109.54) rotate(-45)"/><circle class="r" cx="129.73" cy="61.13" r="31.37" transform="translate(-5.23 109.64) rotate(-45)"/><circle class="s" cx="129.83" cy="61.22" r="31.37" transform="translate(-5.27 109.73) rotate(-45)"/><circle class="ah" cx="129.92" cy="61.32" r="31.37" transform="translate(-5.31 109.83) rotate(-45)"/><circle class="t" cx="130.02" cy="61.42" r="31.37" transform="translate(-5.35 109.92) rotate(-45)"/><circle class="e" cx="130.11" cy="61.51" r="31.37" transform="translate(-5.39 110.02) rotate(-45)"/></g><path class="n" d="M165.51,56.53c-.01-.22-.03-.43-.05-.65-1.38-17.38-14.6-31.65-31.57-34.57-.39-.07-.79-.13-1.18-.18-.25-.03-.49-.07-.74-.1-.02,0-.05,0-.08,0-.27-.03-.54-.06-.81-.09-.07,0-.15-.01-.22-.02-.23-.02-.46-.04-.69-.06-.25-.02-.51-.03-.77-.04-.33-.02-.65-.03-.98-.04-.1,0-.2,0-.3,0-.23,0-.46,0-.68,0-4.94,0-9.66,.94-13.99,2.65-.58,.23-1.15,.47-1.71,.72-3.1,1.4-5.98,3.21-8.57,5.34-.36,.3-.71,.6-1.06,.91-.57,.5-1.12,1.02-1.64,1.55-.22,.22-.43,.44-.64,.66-.31,.33-.61,.66-.91,.99-.31,.34-.61,.7-.91,1.06,0,0,0,0,0,0-.39,.47-.77,.95-1.13,1.44-.92,1.23-1.75,2.51-2.53,3.84-.3,.53-.6,1.07-.88,1.62-.28,.55-.55,1.11-.8,1.67-.25,.57-.5,1.13-.72,1.71-.23,.58-.44,1.16-.64,1.75-.69,2.04-1.21,4.15-1.55,6.33-.2,1.27-.34,2.57-.4,3.89-.03,.67-.05,1.34-.05,2.01,0,.23,0,.46,0,.69,0,.1,0,.2,0,.29,0,.33,.02,.66,.03,.98,.01,.27,.03,.54,.05,.8,.01,.22,.03,.43,.05,.64,0,.08,.01,.16,.02,.24,.02,.25,.05,.51,.08,.76,0,.06,0,.11,.02,.16,.03,.23,.05,.46,.09,.69,.05,.4,.12,.81,.19,1.2,.04,.28,.1,.56,.15,.83,.29,1.48,.67,2.93,1.13,4.34,.43,1.33,.93,2.64,1.5,3.9,5.7,12.67,18.15,21.73,32.66,22.54,.32,.02,.64,.03,.96,.04,.32,0,.64,.02,.96,.02,.28,0,.56,0,.84,0,.2,0,.4,0,.59-.01,.2,0,.4,0,.59-.02,.78-.04,1.56-.1,2.33-.18,.38-.04,.76-.09,1.14-.14,.01,0,.03,0,.05,0,.37-.06,.74-.11,1.11-.18,.94-.16,1.88-.35,2.8-.58,.18-.05,.37-.1,.55-.14,2.75-.73,5.37-1.75,7.83-3.03,.04-.02,.09-.05,.14-.07,6.78-3.57,12.35-9.11,15.95-15.87,0,0,0-.01,0-.02,.03-.07,.07-.14,.1-.21,1.04-1.98,1.91-4.07,2.6-6.23,.23-.72,.44-1.46,.62-2.2,.09-.37,.18-.74,.26-1.12,.08-.38,.16-.75,.23-1.13,.03-.15,.06-.3,.08-.46,.09-.46,.16-.92,.22-1.39,.04-.34,.09-.68,.12-1.03,.02-.19,.04-.39,.06-.58,.03-.32,.05-.63,.08-.96,.02-.27,.03-.54,.05-.8,0-.26,.02-.53,.02-.8,0-.32,.01-.65,.01-.97h0c0-.81-.02-1.6-.07-2.38Zm-39.1,33.78c-13.06-.42-24.2-8.95-28.5-20.68-1.12-3.04-1.78-6.31-1.88-9.7-.05-1.57,.01-3.11,.19-4.61,1.81-16,15.64-28.36,32.24-27.83,16.45,.52,29.85,13.93,30.38,30.38,.58,18.17-14.26,33.01-32.43,32.44Z"/></g><g><path class="ab" d="M115.4,49.8l1.57,2.37c.41,.61,.75,1.18,1.11,1.8h.07c.36-.66,.73-1.23,1.09-1.82l1.55-2.34h2.16l-3.75,5.32,3.87,5.69h-2.28l-1.62-2.48c-.43-.64-.8-1.25-1.18-1.91h-.05c-.36,.66-.75,1.25-1.16,1.91l-1.59,2.48h-2.21l3.91-5.62-3.73-5.39h2.23Z"/><path class="ab" d="M125.93,49.8l1.57,2.37c.41,.61,.75,1.18,1.11,1.8h.07c.36-.66,.73-1.23,1.09-1.82l1.55-2.34h2.16l-3.75,5.32,3.87,5.69h-2.28l-1.62-2.48c-.43-.64-.8-1.25-1.18-1.91h-.05c-.36,.66-.75,1.25-1.16,1.91l-1.59,2.48h-2.21l3.91-5.62-3.73-5.39h2.23Z"/><path class="ab" d="M136.47,49.8l1.57,2.37c.41,.61,.75,1.18,1.11,1.8h.07c.36-.66,.73-1.23,1.09-1.82l1.55-2.34h2.16l-3.75,5.32,3.87,5.69h-2.28l-1.62-2.48c-.43-.64-.8-1.25-1.18-1.91h-.05c-.36,.66-.75,1.25-1.16,1.91l-1.59,2.48h-2.21l3.91-5.62-3.73-5.39h2.23Z"/></g></g></g></g></svg>