<svg width="21" height="21" viewBox="0 0 21 21" fill="none" xmlns="http://www.w3.org/2000/svg">
<path d="M10.8117 0.58783C5.1937 0.58783 0.623199 5.10624 0.623199 10.6602C0.623199 12.5952 1.17972 14.4746 2.23262 16.0956C2.37808 16.3198 2.68001 16.3849 2.90657 16.2409C3.13343 16.097 3.1993 15.7985 3.05353 15.5744C2.10193 14.1092 1.59892 12.41 1.59892 10.6602C1.59892 5.63823 5.73183 1.55243 10.8117 1.55243C15.8915 1.55243 20.0243 5.63823 20.0243 10.6602C20.0243 15.6823 15.8915 19.7678 10.8117 19.7678C8.96454 19.7678 7.18268 19.2297 5.65888 18.2113C5.43563 18.0621 5.1325 18.1201 4.98146 18.3408C4.83057 18.5615 4.88921 18.8611 5.11245 19.0105C6.7983 20.137 8.76904 20.7325 10.8117 20.7325C16.4296 20.7325 21 16.2141 21 10.6603C21 5.10639 16.4296 0.58783 10.8117 0.58783Z" fill="#AAAAAA"/>
<path d="M3.85698 16.8551C3.65349 16.8551 3.46733 16.985 3.39844 17.1741C3.3294 17.3628 3.38939 17.5811 3.54631 17.709C3.70368 17.8371 3.92979 17.8544 4.10525 17.7523C4.28025 17.6504 4.37476 17.444 4.33618 17.247C4.29216 17.0227 4.08866 16.8551 3.85698 16.8551Z" fill="#AAAAAA"/>
<path d="M7.77017 9.07197V10.2781C7.77017 10.779 8.18229 11.1864 8.68876 11.1864H9.93355V13.7534H8.72961C8.22299 13.7534 7.81087 14.1608 7.81087 14.6615V15.8678C7.81087 16.3685 8.22299 16.7761 8.72961 16.7761H13.7766C14.2832 16.7761 14.6953 16.3685 14.6953 15.8678V14.6615C14.6953 14.1608 14.2832 13.7534 13.7766 13.7534H12.991V9.07197C12.991 8.57111 12.5787 8.1637 12.0722 8.1637H8.68876C8.18229 8.1637 7.77017 8.57126 7.77017 9.07197ZM8.74589 9.12845H12.0152V13.8097C12.0152 14.3106 12.4275 14.718 12.934 14.718H13.7196V15.8114H8.78674V14.718H9.99053C10.4973 14.718 10.9093 14.3106 10.9093 13.8097V11.1299C10.9093 10.6292 10.4973 10.2218 9.99053 10.2218H8.74589V9.12845Z" fill="#AAAAAA"/>
<path d="M10.5098 7.44059C11.7013 7.44059 12.6706 6.48225 12.6706 5.3044C12.6706 4.12641 11.7013 3.16821 10.5098 3.16821C9.31833 3.16821 8.34909 4.12641 8.34909 5.3044C8.34909 6.48225 9.31833 7.44059 10.5098 7.44059ZM10.5098 4.13266C11.1633 4.13266 11.6948 4.6584 11.6948 5.3044C11.6948 5.9504 11.1633 6.47584 10.5098 6.47584C9.85631 6.47584 9.32466 5.9504 9.32466 5.3044C9.32466 4.6584 9.85631 4.13266 10.5098 4.13266Z" fill="#AAAAAA"/>
</svg>
