<svg width="636" height="783" viewBox="0 0 636 783" fill="none" xmlns="http://www.w3.org/2000/svg">
<path d="M413.016 1000C306.048 1000 204.42 959.471 126.908 885.854C48.8268 811.712 3.83384 712.097 0.244897 605.348C-3.56288 493.435 37.1409 387.561 114.828 307.204C192.559 226.803 296.945 182.554 408.727 182.554V295.081C327.713 295.081 252.083 327.162 195.754 385.417C139.469 443.671 109.97 520.396 112.684 601.584C115.31 678.571 147.873 750.569 204.377 804.272C260.924 857.931 334.979 887.474 413.016 887.474C574.081 887.474 705.164 756.434 705.164 595.326V112.526H616.754C603.886 112.526 591.807 117.516 582.703 126.619C573.643 135.723 568.654 147.803 568.654 160.671L569.135 591.474C569.135 635.592 550.709 678.178 518.584 708.377C486.02 738.971 443.435 754.333 398.704 751.532C318.26 746.542 253.834 682.117 248.844 601.672C246.087 556.942 261.406 514.356 292.043 481.793C322.199 449.667 364.784 431.241 408.815 431.241V543.768C395.509 543.768 383.167 549.151 374.019 558.867C364.916 568.54 360.32 581.276 361.152 594.669C362.64 618.216 382.204 637.736 405.707 639.224C419.1 640.056 431.836 635.46 441.509 626.357C451.225 617.253 456.609 604.867 456.609 591.562L456.127 160.802C456.084 117.866 472.759 77.4685 503.09 47.0938C533.464 16.7192 573.818 0 616.754 0H817.691V595.326C817.691 818.452 636.143 1000 413.016 1000Z" fill="white" fill-opacity="0.5"/>
</svg>
