<svg width="139" height="35" viewBox="0 0 139 35" fill="none" xmlns="http://www.w3.org/2000/svg">
<path d="M37.5144 24.0687C38.3186 24.8714 39.3297 25.2727 40.5506 25.2727C41.7699 25.2727 42.7763 24.8714 43.5699 24.0687C44.3618 23.2645 44.7586 22.2335 44.7586 20.9728C44.7586 19.7121 44.3618 18.6796 43.5699 17.8769C42.7763 17.0742 41.7699 16.6713 40.5506 16.6713C39.3297 16.6713 38.3186 17.0742 37.5144 17.8769C36.7117 18.6796 36.3104 19.7121 36.3104 20.9728C36.3104 22.2335 36.7117 23.2645 37.5144 24.0687ZM44.7586 7.24731H48.6939V28.5969H44.7586V26.7985C43.6005 28.2829 41.9522 29.0243 39.8183 29.0243C37.7641 29.0243 36.0101 28.2461 34.5564 26.6913C33.1026 25.1349 32.375 23.2292 32.375 20.9728C32.375 18.7148 33.1026 16.8092 34.5564 15.2528C36.0101 13.698 37.7641 12.9198 39.8183 12.9198C41.9522 12.9198 43.6005 13.6628 44.7586 15.1471V7.24731Z" fill="black"/>
<path d="M51.9873 13.3471H55.9211V28.5968H51.9873V13.3471ZM53.9389 11.5165C53.2879 11.5165 52.7241 11.2775 52.2462 10.7996C51.7683 10.3232 51.5293 9.75793 51.5293 9.10688C51.5293 8.45737 51.7683 7.88752 52.2462 7.39886C52.7241 6.91172 53.2879 6.66663 53.9389 6.66663C54.6099 6.66663 55.1843 6.91172 55.6623 7.39886C56.1402 7.88752 56.3792 8.45737 56.3792 9.10688C56.3792 9.75793 56.1402 10.3232 55.6623 10.7996C55.1843 11.2775 54.6099 11.5165 53.9389 11.5165Z" fill="black"/>
<path d="M67.6951 12.9197C69.3618 12.9197 70.7389 13.4788 71.8281 14.5971C72.9157 15.7153 73.4595 17.261 73.4595 19.234V28.5968H69.5257V19.7211C69.5257 18.7055 69.2499 17.9273 68.7015 17.3881C68.1531 16.8504 67.4209 16.5793 66.5048 16.5793C65.4877 16.5793 64.6758 16.8964 64.0661 17.526C63.4549 18.1556 63.1501 19.1023 63.1501 20.3615V28.5968H59.2162V13.3471H63.1501V15.0551C64.106 13.632 65.621 12.9197 67.6951 12.9197Z" fill="black"/>
<path d="M79.7723 19.5389H87.5511C87.3259 18.5018 86.8648 17.7297 86.1633 17.2211C85.4617 16.7126 84.6636 16.4583 83.769 16.4583C82.7104 16.4583 81.8357 16.7279 81.1449 17.2671C80.454 17.8048 79.996 18.5631 79.7723 19.5389ZM79.8336 22.5888C80.3621 24.5006 81.7959 25.4549 84.1351 25.4549C85.6394 25.4549 86.7775 24.9479 87.5511 23.9307L90.7221 25.7613C89.2178 27.9365 87.0012 29.0241 84.0738 29.0241C81.5523 29.0241 79.5288 28.2613 78.0045 26.7371C76.4788 25.2113 75.7159 23.2904 75.7159 20.9727C75.7159 18.6749 76.4681 16.7585 77.9739 15.2236C79.4782 13.6871 81.4099 12.9197 83.769 12.9197C86.0055 12.9197 87.8498 13.6933 89.3036 15.2389C90.7573 16.783 91.4849 18.6948 91.4849 20.9727C91.4849 21.4813 91.4344 22.0205 91.3318 22.5888H79.8336Z" fill="black"/>
<path d="M93.9252 6.33276H97.859V28.5969H93.9252V6.33276Z" fill="black"/>
<path d="M108.412 29.0241C106.114 29.0241 104.198 28.2521 102.663 26.7064C101.128 25.1608 100.361 23.249 100.361 20.9727C100.361 18.6948 101.128 16.783 102.663 15.2374C104.198 13.6933 106.114 12.9197 108.412 12.9197C109.896 12.9197 111.249 13.2766 112.468 13.9874C113.689 14.6997 114.615 15.6556 115.244 16.855L111.859 18.8373C111.554 18.2077 111.091 17.7083 110.471 17.3422C109.85 16.976 109.155 16.7938 108.381 16.7938C107.202 16.7938 106.226 17.1859 105.454 17.9672C104.682 18.7515 104.294 19.7518 104.294 20.9727C104.294 22.1721 104.682 23.1632 105.454 23.946C106.226 24.7288 107.202 25.121 108.381 25.121C109.175 25.121 109.881 24.9433 110.502 24.5863C111.122 24.231 111.585 23.7377 111.889 23.1066L115.305 25.0597C114.634 26.2591 113.689 27.2196 112.468 27.9411C111.249 28.6626 109.896 29.0241 108.412 29.0241Z" fill="black"/>
<path d="M121.146 23.992C121.929 24.784 122.91 25.1807 124.089 25.1807C125.269 25.1807 126.255 24.784 127.049 23.992C127.842 23.1985 128.237 22.192 128.237 20.9727C128.237 19.7518 127.842 18.7454 127.049 17.9518C126.255 17.1599 125.269 16.7631 124.089 16.7631C122.91 16.7631 121.929 17.1599 121.146 17.9518C120.364 18.7454 119.971 19.7518 119.971 20.9727C119.971 22.192 120.364 23.1985 121.146 23.992ZM129.824 26.6911C128.257 28.246 126.347 29.0241 124.089 29.0241C121.833 29.0241 119.927 28.246 118.371 26.6911C116.816 25.1347 116.038 23.2291 116.038 20.9727C116.038 18.7147 116.816 16.8091 118.371 15.2527C119.927 13.6979 121.833 12.9197 124.089 12.9197C126.347 12.9197 128.257 13.6979 129.824 15.2527C131.39 16.8091 132.173 18.7147 132.173 20.9727C132.173 23.2291 131.39 25.1347 129.824 26.6911Z" fill="black"/>
<path d="M137.54 28.2307C137.032 28.7393 136.422 28.9936 135.71 28.9936C134.999 28.9936 134.388 28.7393 133.881 28.2307C133.372 27.7237 133.118 27.114 133.118 26.4017C133.118 25.6894 133.372 25.0797 133.881 24.5711C134.388 24.0625 134.999 23.8082 135.71 23.8082C136.422 23.8082 137.032 24.0625 137.54 24.5711C138.049 25.0797 138.303 25.6894 138.303 26.4017C138.303 27.114 138.049 27.7237 137.54 28.2307Z" fill="#713B9A"/>
<path d="M14.8842 35C11.1403 35 7.5833 33.5815 4.87037 31.0049C2.13753 28.4099 0.562773 24.9234 0.43716 21.1872C0.303888 17.2702 1.72852 13.5646 4.44758 10.7521C7.16817 7.93811 10.8217 6.3894 14.734 6.3894V10.3278C11.8986 10.3278 9.2515 11.4507 7.27999 13.4896C5.31002 15.5285 4.27754 18.2138 4.37252 21.0555C4.46443 23.75 5.60413 26.2699 7.58177 28.1495C9.56094 30.0276 12.1528 31.0616 14.8842 31.0616C20.5214 31.0616 25.1093 26.4752 25.1093 20.8364V3.93842H22.015C21.5646 3.93842 21.1418 4.11305 20.8232 4.43168C20.5061 4.75031 20.3315 5.1731 20.3315 5.62347L20.3483 20.7016C20.3483 22.2457 19.7034 23.7362 18.579 24.7932C17.4393 25.864 15.9488 26.4017 14.3832 26.3036C11.5677 26.129 9.31277 23.8741 9.13814 21.0585C9.04163 19.493 9.57779 18.0025 10.6501 16.8627C11.7055 15.7384 13.196 15.0934 14.7371 15.0934V19.0319C14.2714 19.0319 13.8394 19.2203 13.5193 19.5604C13.2006 19.8989 13.0398 20.3447 13.0689 20.8134C13.121 21.6376 13.8057 22.3208 14.6283 22.3729C15.0971 22.402 15.5429 22.2411 15.8814 21.9225C16.2215 21.6039 16.4099 21.1703 16.4099 20.7047L16.393 5.62806C16.3915 4.12531 16.9752 2.7114 18.0367 1.64828C19.0998 0.585171 20.5122 0 22.015 0H29.0478V20.8364C29.0478 28.6458 22.6936 35 14.8842 35Z" fill="#8754B6"/>
</svg>
